<?xml version="1.0" encoding="iso-8859-1"?>
<!-- Generator: Adobe Illustrator 19.0.0, SVG Export Plug-In . SVG Version: 6.00 Build 0)  -->
<svg version="1.1" id="Capa_1" xmlns="http://www.w3.org/2000/svg" xmlns:xlink="http://www.w3.org/1999/xlink" x="0px" y="0px"
	 viewBox="60 0 400 512" style="enable-background:new 600 0 400 512;" width="40" height="100" xml:space="preserve" fill="#12273B">
<g>
	<g>
		<path d="M357.437,0H154.562C122.822,0,97,25.822,97,57.562v396.876C97,486.178,122.822,512,154.562,512h202.876
			c31.74,0,57.562-25.822,57.562-57.562V57.562C414.999,25.822,389.177,0,357.437,0z M384.704,454.438
			c-0.001,15.035-12.232,27.266-27.267,27.266H154.562c-15.035,0-27.266-12.231-27.266-27.266v-32.032h257.409V454.438z
			 M384.704,392.11h-0.001H127.296V99.956h257.409V392.11z M384.704,69.66H127.296V57.562c0-15.035,12.231-27.266,27.266-27.266
			h202.876c15.035,0,27.266,12.231,27.266,27.266V69.66z"/>
	</g>
</g>
<g>
	<g>
		<path d="M278.261,438.191h-44.523c-8.366,0-15.148,6.782-15.148,15.148c0,8.366,6.782,15.148,15.148,15.148h44.523
			c8.366,0,15.148-6.782,15.148-15.148C293.409,444.973,286.627,438.191,278.261,438.191z"/>
	</g>
</g>
<g>
	<g>
		<path style="    transform: rotate(90deg);
    transform-origin: 63% 49%;" d="M255.999,230.885c-11.435,0-20.739-9.303-20.739-20.739s9.303-20.738,20.739-20.738h35.886
			c8.366,0,15.148-6.782,15.148-15.148c0-8.366-6.782-15.148-15.148-15.148h-20.739v-15.731c0-8.366-6.782-15.148-15.148-15.148
			c-8.366,0-15.148,6.782-15.148,15.148v18.026c-20.767,6.468-35.886,25.871-35.886,48.739c0,28.14,22.894,51.034,51.034,51.034
			c11.435,0,20.739,9.303,20.739,20.739s-9.304,20.739-20.739,20.739h-35.886c-8.366,0-15.148,6.782-15.148,15.148
			c0,8.366,6.782,15.148,15.148,15.148h20.739v15.731c0,8.366,6.782,15.148,15.148,15.148c8.366,0,15.148-6.782,15.148-15.148
			v-18.026c20.767-6.468,35.886-25.871,35.886-48.739C307.034,253.779,284.14,230.885,255.999,230.885z"/>
	</g>
</g>

</svg>
