<?xml version="1.0" encoding="iso-8859-1"?>
<!-- Generator: Adobe Illustrator 16.0.0, SVG Export Plug-In . SVG Version: 6.00 Build 0)  -->
<!DOCTYPE svg PUBLIC "-//W3C//DTD SVG 1.1//EN" "http://www.w3.org/Graphics/SVG/1.1/DTD/svg11.dtd">
<svg version="1.1" id="Capa_1" xmlns="http://www.w3.org/2000/svg" xmlns:xlink="http://www.w3.org/1999/xlink" x="0px" y="0px"
	  width="100%" height="100%" viewBox="0 0 572.686 572.686" style="enable-background:new 0 0 572.686 572.686;"
	 xml:space="preserve" fill="#ffffff">
<g>
	<g>
		<path d="M533.652,47.137H133.282c-21.524,0-39.034,17.509-39.034,39.034c0,21.524,17.509,39.033,39.034,39.033h400.371
			c21.523,0,39.033-17.509,39.033-39.033C572.686,64.646,555.176,47.137,533.652,47.137z"/>
		<path d="M533.652,183.662H133.282c-21.524,0-39.034,17.509-39.034,39.034c0,21.524,17.509,39.033,39.034,39.033h400.371
			c21.523,0,39.033-17.509,39.033-39.033C572.686,201.171,555.176,183.662,533.652,183.662z"/>
		<path d="M533.652,314.184H133.282c-21.524,0-39.034,17.508-39.034,39.033c0,21.523,17.509,39.033,39.034,39.033h400.371
			c21.523,0,39.033-17.51,39.033-39.033C572.686,331.691,555.176,314.184,533.652,314.184z"/>
		
	</g>
</g>
<g>
</g>
<g>
</g>
<g>
</g>
<g>
</g>
<g>
</g>
<g>
</g>
<g>
</g>
<g>
</g>
<g>
</g>
<g>
</g>
<g>
</g>
<g>
</g>
<g>
</g>
<g>
</g>
<g>
</g>
</svg>
