<?xml version="1.0" encoding="iso-8859-1"?>
<!-- Generator: Adobe Illustrator 19.0.0, SVG Export Plug-In . SVG Version: 6.00 Build 0)  -->
<svg version="1.1" id="Layer_1" xmlns="http://www.w3.org/2000/svg" xmlns:xlink="http://www.w3.org/1999/xlink" x="0px" y="0px"
	 viewBox="0 0 512.001 512.001" style="enable-background:new 0 0 512.001 512.001;" xml:space="preserve" fill="#2670ad">
<g>
	<g>
		<path d="M315.147,196.866c-0.002-0.002-0.004-0.002-0.004-0.002s-0.004-0.007-0.006-0.009
			c-15.151-15.148-36.068-24.529-59.135-24.529c-23.068,0-43.984,9.382-59.135,24.529c-0.002,0.002-0.002,0.005-0.002,0.005
			s-0.007,0.004-0.009,0.006c-15.148,15.151-24.529,36.068-24.529,59.135s9.382,43.984,24.529,59.135
			c0.002,0.002,0.004,0.002,0.004,0.002s0.004,0.007,0.006,0.009c15.151,15.148,36.068,24.529,59.135,24.529
			s43.984-9.381,59.135-24.529c0.002-0.002,0.002-0.004,0.002-0.004s0.007-0.004,0.009-0.006
			c15.148-15.151,24.529-36.068,24.529-59.135S330.294,212.017,315.147,196.866z M289.47,272.847h-16.624v16.624
			c0,9.239-7.608,16.735-16.847,16.735c-9.239,0-16.735-7.495-16.735-16.735v-16.624h-16.735c-9.239,0-16.735-7.608-16.735-16.847
			c0-9.239,7.496-16.735,16.735-16.735h16.735V222.53c0-9.239,7.496-16.735,16.735-16.735c9.239,0,16.847,7.496,16.847,16.735
			v16.735h16.624c9.239,0,16.735,7.496,16.735,16.735C306.205,265.239,298.709,272.847,289.47,272.847z"/>
	</g>
</g>
<g>
	<g>
		<path d="M272.846,0.001v140.191c19.798,2.852,37.86,10.638,53.18,22.118l99.075-99.075
			C383.837,26.991,331.021,3.767,272.846,0.001z"/>
	</g>
</g>
<g>
	<g>
		<path d="M371.809,272.847c-2.852,19.798-10.638,37.86-22.118,53.18l99.074,99.074c36.245-41.263,59.469-94.079,63.235-152.254
			H371.809z"/>
	</g>
</g>
<g>
	<g>
		<path d="M140.19,272.848H0c3.767,58.174,26.99,110.99,63.234,152.254l99.074-99.074
			C150.828,310.708,143.042,292.645,140.19,272.848z"/>
	</g>
</g>
<g>
	<g>
		<path d="M63.234,86.899C26.99,128.164,3.767,181.09,0,239.265h140.191c2.852-19.798,10.638-37.972,22.118-53.291L63.234,86.899z"
			/>
	</g>
</g>
<g>
	<g>
		<path d="M239.264,371.809c-19.798-2.852-37.972-10.638-53.291-22.118l-99.074,99.074c41.264,36.244,94.192,59.468,152.367,63.234
			v-140.19H239.264z"/>
	</g>
</g>
<g>
	<g>
		<path d="M448.766,86.899l-99.074,99.074c11.48,15.319,19.267,33.494,22.118,53.291h140.191
			C508.233,181.09,485.01,128.164,448.766,86.899z"/>
	</g>
</g>
<g>
	<g>
		<path d="M326.027,349.691c-15.319,11.48-33.382,19.267-53.18,22.118v140.191c58.175-3.767,110.991-26.99,152.255-63.234
			L326.027,349.691z"/>
	</g>
</g>
<g>
	<g>
		<g>
			<polygon points="239.263,0.001 239.263,0.001 239.264,0.001 			"/>
			<path d="M86.898,63.235l99.074,99.074c15.319-11.48,33.494-19.267,53.291-22.118V0.001
				C181.089,3.767,128.162,26.991,86.898,63.235z M189.059,113.751c-9.242,0-16.735-7.493-16.735-16.735s7.493-16.735,16.735-16.735
				s16.735,7.493,16.735,16.735S198.302,113.751,189.059,113.751z"/>
		</g>
	</g>
</g>
<g>
</g>
<g>
</g>
<g>
</g>
<g>
</g>
<g>
</g>
<g>
</g>
<g>
</g>
<g>
</g>
<g>
</g>
<g>
</g>
<g>
</g>
<g>
</g>
<g>
</g>
<g>
</g>
<g>
</g>
</svg>
